<?xml version="1.0" encoding="UTF-8" standalone="no" ?>
<!DOCTYPE svg PUBLIC "-//W3C//DTD SVG 1.1//EN" "http://www.w3.org/Graphics/SVG/1.1/DTD/svg11.dtd">
<svg xmlns="http://www.w3.org/2000/svg" xmlns:xlink="http://www.w3.org/1999/xlink" version="1.1" width="27" height="27" viewBox="0 0 27 27" xml:space="preserve">
<desc>Created with Fabric.js 4.6.0</desc>
<defs>
</defs>
<g transform="matrix(1 0 0 1 6.87 6.87)" id="slka16z6U6O7nWbMT-sXQ"  >
<path style="stroke: none; stroke-width: 1; stroke-dasharray: none; stroke-linecap: butt; stroke-dashoffset: 0; stroke-linejoin: miter; stroke-miterlimit: 4; fill: rgb(0,0,0); fill-rule: evenodd; opacity: 1;" vector-effect="non-scaling-stroke"  transform=" translate(-6, -6)" d="M 0 6 C 0 2.68629 2.68629 0 6 0 C 9.31371 0 12 2.68629 12 6 C 12 9.31371 9.31371 12 6 12 C 2.68629 12 0 9.31371 0 6 Z M 6 4 C 4.89543 4 4 4.89543 4 6 C 4 7.10457 4.89543 8 6 8 C 7.10457 8 8 7.10457 8 6 C 8 4.89543 7.10457 4 6 4 Z" stroke-linecap="round" />
</g>
<g transform="matrix(1 0 0 1 19.87 6.87)" id="XZWDlEEDf4YbezDa0axlY"  >
<path style="stroke: none; stroke-width: 1; stroke-dasharray: none; stroke-linecap: butt; stroke-dashoffset: 0; stroke-linejoin: miter; stroke-miterlimit: 4; fill: rgb(0,0,0); fill-rule: evenodd; opacity: 1;" vector-effect="non-scaling-stroke"  transform=" translate(-6, -6)" d="M 0 6 C 0 2.68629 2.68629 0 6 0 C 9.31371 0 12 2.68629 12 6 C 12 9.31371 9.31371 12 6 12 C 2.68629 12 0 9.31371 0 6 Z M 6 4 C 4.89543 4 4 4.89543 4 6 C 4 7.10457 4.89543 8 6 8 C 7.10457 8 8 7.10457 8 6 C 8 4.89543 7.10457 4 6 4 Z" stroke-linecap="round" />
</g>
<g transform="matrix(1 0 0 1 6.87 19.87)" id="o9O_W42zROU2xzTcaH_Ag"  >
<path style="stroke: none; stroke-width: 1; stroke-dasharray: none; stroke-linecap: butt; stroke-dashoffset: 0; stroke-linejoin: miter; stroke-miterlimit: 4; fill: rgb(0,0,0); fill-rule: evenodd; opacity: 1;" vector-effect="non-scaling-stroke"  transform=" translate(-6, -6)" d="M 0 6 C 0 2.68629 2.68629 0 6 0 C 9.31371 0 12 2.68629 12 6 C 12 9.31371 9.31371 12 6 12 C 2.68629 12 0 9.31371 0 6 Z M 6 4 C 4.89543 4 4 4.89543 4 6 C 4 7.10457 4.89543 8 6 8 C 7.10457 8 8 7.10457 8 6 C 8 4.89543 7.10457 4 6 4 Z" stroke-linecap="round" />
</g>
<g transform="matrix(1 0 0 1 19.87 19.87)" id="ABU49UtCUr4DahUpHNWQO"  >
<path style="stroke: none; stroke-width: 1; stroke-dasharray: none; stroke-linecap: butt; stroke-dashoffset: 0; stroke-linejoin: miter; stroke-miterlimit: 4; fill: rgb(0,0,0); fill-rule: evenodd; opacity: 1;" vector-effect="non-scaling-stroke"  transform=" translate(-6, -6)" d="M 0 6 C 0 2.68629 2.68629 0 6 0 C 9.31371 0 12 2.68629 12 6 C 12 9.31371 9.31371 12 6 12 C 2.68629 12 0 9.31371 0 6 Z M 6 4 C 4.89543 4 4 4.89543 4 6 C 4 7.10457 4.89543 8 6 8 C 7.10457 8 8 7.10457 8 6 C 8 4.89543 7.10457 4 6 4 Z" stroke-linecap="round" />
</g>
</svg>