<?xml version="1.0" encoding="UTF-8" standalone="no" ?>
<!DOCTYPE svg PUBLIC "-//W3C//DTD SVG 1.1//EN" "http://www.w3.org/Graphics/SVG/1.1/DTD/svg11.dtd">
<svg xmlns="http://www.w3.org/2000/svg" xmlns:xlink="http://www.w3.org/1999/xlink" version="1.1" width="30" height="30" viewBox="0 0 30 30" xml:space="preserve">
<desc>Created with Fabric.js 4.6.0</desc>
<defs>
</defs>
<g transform="matrix(1 0 0 1 16.78 13.34)" id="6znT_D1EitFLo77TKdGY-"  >
<path style="stroke: none; stroke-width: 1; stroke-dasharray: none; stroke-linecap: butt; stroke-dashoffset: 0; stroke-linejoin: miter; stroke-miterlimit: 4; fill: rgb(0,0,0); fill-rule: evenodd; opacity: 1;" vector-effect="non-scaling-stroke"  transform=" translate(-9.78, -7)" d="M 3.77771 2 C 3.22543 2 2.77771 2.44772 2.77771 3 L 2.77771 12 L 16.7777 12 L 16.7777 3 C 16.7777 2.44772 16.33 2 15.7777 2 L 3.77771 2 Z M 0.77771 3 C 0.77771 1.34315 2.12086 0 3.77771 0 L 15.7777 0 C 17.4346 0 18.7777 1.34315 18.7777 3 L 18.7777 14 L 0.77771 14 L 0.77771 3 Z" stroke-linecap="round" />
</g>
<g transform="matrix(1 0 0 1 16.78 21.84)" id="-mUJwF3lF460aTQO4-JtG"  >
<path style="stroke: none; stroke-width: 1; stroke-dasharray: none; stroke-linecap: butt; stroke-dashoffset: 0; stroke-linejoin: miter; stroke-miterlimit: 4; fill: rgb(0,0,0); fill-rule: evenodd; opacity: 1;" vector-effect="non-scaling-stroke"  transform=" translate(-12.78, -3)" d="M 4.39756 0 L 21.158 0 L 24.9592 3.37889 C 25.9901 4.29523 25.3419 6 23.9627 6 L 1.59286 6 C 0.213583 6 -0.434571 4.29523 0.596313 3.37889 L 4.39756 0 Z M 5.15796 2 L 2.90796 4 L 22.6476 4 L 20.3976 2 L 5.15796 2 Z" stroke-linecap="round" />
</g>
</svg>